<?xml version="1.0" encoding="UTF-8"?>
<svg width="543px" height="94px" viewBox="0 0 543 94" version="1.1" xmlns="http://www.w3.org/2000/svg" xmlns:xlink="http://www.w3.org/1999/xlink">
    <!-- Generator: Sketch 53.2 (72643) - https://sketchapp.com -->
    <title>Fretaculous</title>
    <desc>Created with Sketch.</desc>
    <g id="Page-1" stroke="none" stroke-width="1" fill="none" fill-rule="evenodd">
        <path d="M15.366,42.153 L11.337,45.708 C9.678,46.972 6.992,48.631 5.333,48.631 C4.069,48.631 2.884,47.92 1.857,46.577 C1.225,45.787 0.909,44.839 0.909,43.812 C0.909,41.047 3.358,37.492 8.256,32.989 C13.707,28.012 20.817,23.114 29.665,18.374 C38.592,13.634 45.86,11.027 51.232,9.605 C56.367,8.262 58.579,8.025 60.238,8.025 C70.824,8.025 70.113,16.952 68.375,26.985 C67.427,33.384 65.926,37.097 65.531,38.282 C66.479,37.887 67.585,37.571 68.77,37.176 C71.219,36.465 75.248,35.517 77.065,34.964 C79.514,34.016 80.857,35.675 81.41,37.413 C81.568,37.808 81.647,38.203 81.647,38.598 C81.647,40.494 80.225,42.548 78.961,42.864 C70.587,44.444 65.215,45.945 62.845,47.288 C62.608,47.999 61.818,50.448 60.396,54.477 C57.71,62.535 50.363,79.52 46.492,87.657 C45.307,90.106 44.675,92.318 42.068,93.108 C41.12,93.424 39.777,93.582 38.118,93.582 C34.879,93.582 32.193,92.95 32.193,91.765 C32.193,91.291 33.141,89.237 34.958,85.524 C36.775,81.811 39.145,76.755 42.068,70.435 C44.991,64.036 47.44,58.032 49.415,52.344 L43.964,55.267 C43.016,55.662 41.594,56.215 40.409,56.215 L40.172,56.215 C38.987,56.215 38.355,55.504 38.355,54.161 C38.355,52.66 39.224,50.132 40.251,49.026 C41.752,47.999 43.411,46.972 45.386,46.024 C49.257,44.049 52.18,42.943 52.575,42.39 C55.024,36.07 55.656,34.253 57.473,22.956 C57.868,20.507 56.051,19.243 53.128,19.243 C49.968,19.243 46.571,20.191 43.016,22.087 C40.567,23.351 38.434,24.536 36.459,25.721 L31.798,28.486 C30.692,29.197 29.27,30.224 27.532,31.646 L24.135,34.332 C23.661,34.727 22.239,35.991 19.948,38.124 L15.366,42.153 Z M98.869,89.395 L98.553,89.395 C96.262,89.316 94.682,89.079 93.655,88.684 C92.707,88.289 91.68,87.183 90.653,85.524 C89.626,83.865 89.152,81.89 89.152,79.52 C89.152,76.755 89.784,73.753 90.969,70.514 C93.181,65.695 96.262,63.246 96.262,62.298 C96.262,61.508 94.366,60.323 90.574,58.664 C89.468,60.481 88.204,63.167 86.861,64.826 C81.726,71.383 75.722,77.071 68.849,82.048 C65.768,84.26 63.003,85.366 60.633,85.366 C58.974,85.366 58.026,84.971 57.631,84.26 C57.236,83.233 56.999,82.364 56.999,81.732 C56.999,79.046 59.053,76.676 63.24,74.622 C66.005,73.358 69.323,70.277 73.194,65.458 C77.065,60.56 79.514,56.057 80.699,51.87 C80.778,51.712 80.778,51.475 80.778,51.159 C80.778,50.448 80.383,49.026 79.593,47.051 C78.882,44.997 78.408,43.338 78.329,42.153 L78.329,41.205 C78.329,38.677 78.882,36.307 80.067,34.095 C81.252,31.804 82.832,30.698 84.728,30.698 C84.965,30.698 85.36,30.777 85.913,30.856 C91.522,32.436 93.339,41.047 93.339,45.076 C93.339,45.708 93.339,46.103 93.26,46.34 C95.551,48.473 98.711,50.211 102.74,51.633 C106.848,53.055 109.692,54.477 111.193,55.899 C111.746,56.373 112.062,57.005 112.062,57.716 C112.062,59.849 110.245,62.377 106.137,67.433 C103.846,70.198 102.74,72.647 102.74,74.78 C102.74,75.491 102.898,76.202 103.135,76.992 C103.372,77.861 104.004,78.256 104.873,78.256 C105.663,78.256 107.164,77.703 109.455,76.518 C111.746,75.333 113.405,74.78 114.432,74.78 C115.222,74.78 115.854,75.096 116.407,75.649 C117.118,76.439 117.434,77.466 117.434,78.651 C117.434,81.258 116.091,83.391 113.484,85.05 C109.06,87.973 104.162,89.395 98.869,89.395 Z M153.774,62.377 L153.774,64.115 C153.774,66.564 153.695,67.828 151.562,69.25 C149.429,70.435 146.901,71.383 143.978,72.094 C138.211,73.358 134.024,73.911 132.839,75.728 C132.681,76.044 132.602,76.281 132.602,76.518 C132.602,77.861 135.209,78.73 138.369,78.73 C139.554,78.73 140.66,78.572 141.608,78.335 C150.693,75.886 156.381,73.279 161.437,68.302 C161.832,67.907 162.622,67.67 163.649,67.67 C165.861,67.67 168.863,68.618 168.863,70.119 C168.863,71.778 167.283,74.227 164.202,77.545 C161.121,80.784 158.435,82.996 156.065,84.181 C149.35,87.42 142.003,89 134.024,89 C123.991,89 118.54,86.077 117.513,80.31 C117.434,80.073 117.434,79.599 117.434,79.046 C117.434,75.965 119.646,72.726 122.569,70.514 C125.492,68.302 128.099,66.88 130.074,66.169 L130.153,66.169 C130.627,66.09 123.201,65.221 120.199,63.246 C117.118,61.429 115.617,58.822 115.617,55.425 C115.617,53.292 116.328,51.554 117.671,50.132 C120.515,47.051 124.86,45.234 127.072,44.681 C128.178,44.444 130.232,44.128 133.155,43.812 L138.922,43.101 C140.344,42.864 142.398,42.706 145.005,42.548 C150.377,42.232 155.117,41.442 162.701,38.993 L162.78,38.993 C162.859,38.993 162.938,39.072 162.938,39.309 C162.938,39.783 162.701,40.652 162.306,41.995 C161.911,43.338 161.358,44.918 160.726,46.735 C160.094,48.552 159.62,50.053 159.383,51.08 C158.751,52.581 157.724,53.292 156.46,54.003 C155.828,54.319 154.169,54.635 153.458,54.714 L149.824,55.188 C148.402,55.346 147.059,55.425 145.874,55.425 C144.768,55.425 143.346,55.346 141.529,55.267 C139.712,55.109 138.448,55.03 137.737,55.03 C135.604,55.03 133.708,55.425 132.207,56.136 C131.812,56.373 131.654,56.531 131.654,56.768 C131.654,57.242 132.681,57.716 134.735,58.111 C136.789,58.506 139.554,58.901 143.109,59.296 C146.664,59.691 149.35,60.086 151.088,60.402 C152.905,60.718 153.774,61.35 153.774,62.377 Z M171.786,89.395 L171.47,89.395 C169.179,89.316 167.599,89.079 166.572,88.684 C165.624,88.289 164.597,87.183 163.57,85.524 C162.622,83.944 162.069,81.969 161.99,79.599 L158.83,82.048 C155.749,84.26 152.984,85.366 150.614,85.366 C148.955,85.366 148.007,84.971 147.612,84.26 C147.217,83.233 146.98,82.364 146.98,81.732 C146.98,79.046 149.034,76.676 153.221,74.622 C155.512,73.595 158.277,70.909 161.516,66.564 C164.755,62.219 167.283,57.953 169.1,53.687 C171.391,46.972 173.208,40.731 174.709,34.964 C174.551,34.885 173.998,34.727 173.129,34.332 L171.391,33.463 C169.258,32.278 167.915,29.671 167.915,27.064 C167.915,26.511 167.994,25.879 168.231,25.01 C168.784,23.272 169.653,22.403 170.917,22.403 C171.47,22.403 171.944,22.561 172.497,22.956 C173.445,23.509 175.025,24.141 177.237,24.773 C177.316,24.694 177.632,23.667 178.264,21.692 L180.318,15.056 L181.898,10.316 C182.609,8.42 183.715,6.603 185.295,4.865 C186.875,3.127 188.692,2.258 190.825,2.258 C191.378,2.258 191.852,2.337 192.168,2.416 C195.328,2.811 196.908,4.865 196.908,8.42 C196.908,10.79 196.118,14.187 194.459,18.532 L191.773,25.484 C192.405,25.405 194.459,25.089 197.935,24.378 C200.226,23.825 202.201,23.588 203.781,23.588 C206.625,23.588 207.889,24.299 207.889,24.615 C208.6,25.484 208.916,26.59 208.916,27.775 C208.916,30.382 207.81,32.515 205.519,34.253 C203.544,35.754 199.91,36.465 194.775,36.465 C193.195,36.465 190.114,36.307 189.245,36.307 C188.929,36.307 188.218,36.386 187.981,36.386 C187.586,37.65 186.243,41.442 183.952,47.683 C181.661,53.924 179.686,59.612 178.106,64.747 C176.605,69.803 175.815,73.437 175.815,75.649 C175.815,76.834 176.052,77.466 176.447,77.703 C176.921,78.019 177.395,78.177 177.948,78.177 C178.896,78.177 180.476,77.624 182.609,76.439 C187.033,74.148 188.376,74.385 189.324,75.649 C190.035,76.439 190.351,77.466 190.351,78.651 C190.351,81.258 189.008,83.391 186.401,85.05 C181.977,87.973 177.079,89.395 171.786,89.395 Z M238.067,78.256 L238.304,78.256 C239.489,78.098 241.069,77.466 243.202,76.36 C245.335,75.175 246.757,74.622 247.626,74.622 C248.337,74.622 248.89,74.859 249.364,75.333 C250.391,76.36 250.865,77.466 250.865,78.651 C250.865,80.389 250.075,82.048 248.495,83.628 C246.204,86.077 242.017,87.894 236.092,89 C234.907,89.237 233.564,89.316 232.063,89.316 L231.51,89.316 C230.562,89.316 229.219,89.237 227.56,89 C226.296,88.763 225.348,88.447 224.716,88.052 C224.321,87.736 224.005,87.499 223.847,87.262 L223.373,86.551 C223.373,86.472 223.057,85.998 223.057,85.919 L221.003,86.867 C219.976,87.42 219.107,87.736 218.554,87.973 C217.843,88.289 216.895,88.605 215.631,88.842 C214.051,89.079 212.55,89.237 211.207,89.237 C210.18,89.237 209.232,89.158 208.284,89 C206.625,88.763 205.124,88.21 203.781,87.499 C201.806,86.472 200.147,84.971 198.962,82.996 C198.014,81.495 197.303,79.836 196.908,78.019 C196.039,79.046 194.459,80.31 192.168,81.811 C189.956,83.312 187.823,84.339 185.769,85.05 C185.137,85.366 184.347,85.524 183.32,85.524 C181.108,85.524 180.002,84.26 179.923,81.732 L179.923,81.653 C179.923,80.073 180.792,78.572 182.372,77.229 C183.162,76.518 183.873,76.044 184.426,75.649 C184.979,75.254 185.69,74.78 186.638,74.227 C187.507,73.674 187.981,73.358 188.06,73.358 C190.43,71.857 192.721,69.566 195.012,66.485 C197.303,63.404 199.041,60.718 200.226,58.427 C201.648,55.662 203.386,53.213 205.361,51.159 C207.415,49.105 209.627,47.367 211.997,46.024 C214.13,44.839 216.184,44.128 218.08,43.733 C218.554,43.654 219.265,43.575 220.292,43.575 C221.477,43.575 222.504,43.654 223.373,43.891 C224.716,44.207 226.375,44.76 228.192,45.629 C228.508,45.708 229.456,46.34 229.851,46.419 C229.93,46.498 230.088,46.498 230.246,46.498 L230.72,46.498 C230.799,46.498 231.036,46.34 231.115,46.261 L231.431,46.024 C231.668,45.708 231.826,45.471 231.984,45.392 C232.063,45.392 232.458,45.234 232.537,45.155 L233.169,45.155 C233.722,45.234 234.512,45.392 235.697,45.708 C236.645,45.945 237.356,46.261 237.909,46.577 C239.252,47.288 240.279,47.92 240.911,48.394 C241.385,48.789 241.859,49.184 242.333,49.737 C242.886,50.448 243.281,51.159 243.439,51.87 L243.439,52.502 C243.439,53.134 243.36,53.766 243.123,54.319 C242.807,55.109 242.254,56.215 241.464,57.558 C240.753,58.901 240.2,59.849 239.963,60.402 C238.62,63.246 237.593,66.248 236.882,69.329 C236.329,71.62 236.092,73.437 236.092,74.622 C236.092,75.57 236.171,76.36 236.408,76.992 C236.645,77.861 237.198,78.256 238.067,78.256 Z M222.109,56.452 L221.635,56.452 C220.924,56.531 220.292,56.768 219.739,57.084 C219.186,57.321 218.633,57.716 218.08,58.19 C217.053,58.901 216.105,59.77 215.157,60.955 C212.787,63.72 211.286,66.564 210.575,69.487 C210.417,70.119 210.338,70.751 210.338,71.462 C210.338,71.857 210.338,72.173 210.417,72.41 C210.654,73.516 210.97,74.385 211.523,75.017 C211.918,75.491 212.55,75.965 213.419,76.36 C213.656,76.439 214.13,76.518 214.683,76.518 C215.157,76.518 215.473,76.518 215.71,76.439 C217.606,76.202 219.423,75.175 221.082,73.358 C221.951,72.41 222.504,71.699 222.82,71.225 C223.531,70.277 225.19,65.695 225.269,59.375 C225.269,58.348 224.084,57.084 223.531,56.847 C223.215,56.61 222.741,56.452 222.109,56.452 Z M270.615,71.857 L270.615,72.331 C270.931,74.227 271.721,79.362 283.65,79.362 C286.257,79.362 289.338,78.572 292.814,77.071 C296.29,75.57 298.344,74.78 299.055,74.78 C299.924,74.78 300.556,75.175 301.109,76.044 C301.662,76.913 301.899,77.861 301.899,78.888 C301.899,80.942 300.872,82.838 298.739,84.497 C296.606,86.156 294.236,87.341 291.55,87.973 C286.494,89.237 281.912,89.869 277.725,89.869 C271.721,89.869 266.665,88.526 263.821,86.63 C261.056,84.734 259.871,83.628 259.16,82.443 C258.212,80.863 257.58,79.362 257.185,77.861 C255.526,79.283 253.788,80.705 251.892,82.048 C248.811,84.26 246.046,85.366 243.676,85.366 C242.017,85.366 241.069,84.971 240.674,84.26 C240.279,83.233 240.042,82.364 240.042,81.732 C240.042,79.046 242.096,76.676 246.283,74.622 C248.574,73.595 251.023,71.62 253.551,68.776 C256.158,65.932 258.133,63.088 259.634,60.165 C263.189,52.186 269.114,46.656 277.567,43.496 C280.411,42.469 283.176,41.916 285.862,41.916 C289.812,41.916 293.051,42.943 295.658,44.997 C298.265,46.972 299.608,49.342 299.845,52.028 L299.845,52.739 C299.845,56.61 297.949,60.007 294.157,63.088 C292.261,64.589 289.97,65.379 287.205,65.379 C286.573,65.379 286.099,65.379 285.783,65.3 C284.44,65.221 283.255,63.009 283.255,61.982 C283.255,61.745 283.571,61.192 284.203,60.323 C284.835,59.375 285.151,58.743 285.151,58.348 C285.151,58.111 284.993,57.716 284.598,57.084 C284.361,56.768 284.124,56.531 283.808,56.294 C283.176,56.057 282.623,55.899 282.228,55.899 L281.833,55.899 C281.28,55.978 280.648,56.136 279.937,56.531 C279.542,56.768 278.989,57.084 278.278,57.637 C276.935,58.822 275.908,59.691 275.355,60.402 C272.985,63.167 271.484,66.011 270.773,68.934 C270.615,70.198 270.536,70.83 270.536,70.909 C270.536,71.146 270.615,71.62 270.615,71.857 Z M315.329,51.791 L315.329,51.633 L315.803,48.71 C316.83,45.629 318.805,43.812 321.649,43.259 C322.281,43.101 322.913,43.022 323.545,43.022 C326.152,43.022 327.811,44.049 328.522,46.024 C328.759,46.893 328.917,47.683 328.917,48.236 C328.917,49.026 328.759,49.974 328.443,51.08 C327.89,53.292 326.389,58.111 325.441,61.982 C324.414,66.011 323.94,69.092 323.94,71.304 C323.94,74.464 325.046,76.044 327.179,76.044 C328.838,76.044 330.339,75.886 331.524,75.175 C332.709,74.306 333.499,74.148 334.21,72.805 C335.079,71.304 335.316,71.304 335.948,69.171 L336.659,67.117 L337.291,64.668 L337.923,62.14 C338.16,61.587 338.634,59.691 339.345,56.531 C340.925,50.211 342.663,44.523 344.006,43.575 C344.875,43.259 345.902,43.101 346.929,43.101 C350.405,43.101 353.644,44.839 354.039,48.078 C354.118,48.315 354.118,48.552 354.118,48.947 C354.118,50.448 353.17,54.082 351.353,59.928 C349.536,65.695 348.351,70.672 347.64,74.859 L347.64,75.728 C347.64,77.071 348.193,77.782 349.22,77.782 C350.01,77.782 351.669,77.229 354.118,76.123 C356.567,74.938 358.384,74.385 359.411,74.385 C360.28,74.385 360.912,74.701 361.386,75.333 C362.097,76.36 362.492,77.466 362.492,78.493 C362.492,80.784 360.754,83.075 357.199,85.366 C352.775,88.131 346.534,89.632 341.794,89.632 C339.977,89.632 338.634,89.395 337.607,89 C335.316,87.894 336.58,84.655 335.237,86.472 C333.262,88.447 330.102,89.474 325.915,89.474 C322.123,89.474 318.805,88.447 315.882,86.393 C313.038,84.26 311.379,81.021 310.984,76.676 C310.984,76.439 310.905,76.123 310.905,75.886 C308.851,77.782 306.323,79.836 303.4,82.048 C300.319,84.26 297.554,85.366 295.184,85.366 C293.525,85.366 292.577,84.971 292.182,84.26 C291.787,83.233 291.55,82.364 291.55,81.732 C291.55,79.046 293.604,76.676 297.791,74.622 C300.556,73.358 303.874,70.277 307.745,65.458 C311.616,60.56 314.065,56.057 315.25,51.87 L315.329,51.791 Z M368.733,78.098 L363.677,82.048 C360.438,84.339 357.673,85.445 355.382,85.445 C354.039,85.445 353.091,85.05 352.459,84.26 C352.064,83.391 351.827,82.443 351.827,81.574 C351.827,79.915 352.775,78.572 353.881,77.466 C354.434,76.834 355.856,75.886 356.488,75.57 C357.041,75.254 358.779,74.227 359.016,74.148 C361.702,72.331 363.598,70.83 364.704,69.645 C365.889,68.46 367.627,66.09 369.997,62.693 C370.392,61.113 371.103,57.4 372.288,51.633 C373.473,45.866 374.579,40.336 375.685,35.201 C376.791,30.066 377.739,26.274 378.45,23.825 C380.346,17.11 382.005,12.607 384.849,7.867 C387.772,3.127 391.801,0.599 396.778,0.599 C404.046,0.678 407.443,7.156 407.443,16.32 C407.443,20.507 406.811,24.852 405.468,29.513 C403.651,35.28 400.333,41.837 395.514,49.026 C390.774,56.215 385.955,61.745 380.978,65.695 C380.267,68.223 379.872,70.83 379.872,73.516 L379.872,76.202 C380.03,78.019 380.741,78.967 382.084,78.967 C382.242,78.967 382.637,78.888 383.269,78.809 C383.98,78.651 385.639,77.94 388.246,76.676 C393.539,74.148 395.277,74.306 396.146,76.281 C396.541,77.387 396.699,78.256 396.699,78.967 C396.699,81.258 395.277,83.391 392.354,85.287 C387.693,88.052 382.953,89.395 378.055,89.395 L376.633,89.395 C374.026,89.158 372.446,88.842 371.814,88.447 C371.024,87.973 370.234,86.867 369.444,85.208 C368.891,83.865 368.575,82.206 368.575,80.389 C368.575,79.599 368.654,78.809 368.733,78.098 Z M396.936,17.821 L396.936,17.584 C396.857,15.451 396.462,14.424 395.593,14.424 C394.724,14.424 393.697,15.451 392.433,17.426 C391.248,19.401 390.458,21.218 390.063,22.877 L383.427,50.369 C388.009,44.76 391.406,38.914 393.618,32.989 C395.83,26.985 396.936,21.929 396.936,17.821 Z M433.671,60.244 L433.671,61.034 C433.671,65.616 432.644,70.04 430.669,74.385 C428.694,78.651 425.929,82.206 422.216,84.971 C418.582,87.736 414.553,89.158 410.208,89.158 C408.391,89.158 406.574,88.921 404.678,88.447 C401.518,87.578 398.832,85.524 396.699,82.443 C394.566,79.362 393.539,75.57 393.539,71.225 C393.539,67.433 394.329,63.641 395.988,59.77 C398.279,54.24 401.36,49.974 405.31,47.051 C409.26,44.049 413.368,42.548 417.555,42.548 C421.9,42.548 425.534,44.128 428.615,47.209 C431.696,50.29 433.355,54.635 433.671,60.244 Z M421.11,58.822 C420.32,57.084 419.214,56.215 417.713,56.215 C416.054,56.215 414.158,57.242 412.104,59.296 C410.05,61.271 408.786,63.009 408.312,64.352 C407.285,66.327 406.732,68.618 406.732,71.383 C406.732,74.306 407.759,76.123 409.892,76.834 C410.603,76.913 411.156,76.992 411.393,76.992 C414.474,76.992 416.923,75.333 418.74,72.094 C420.636,68.855 421.584,65.458 421.584,62.061 C421.584,60.718 421.426,59.691 421.11,58.822 Z M449.945,51.791 L449.945,51.633 L450.419,48.71 C451.446,45.629 453.421,43.812 456.265,43.259 C456.897,43.101 457.529,43.022 458.161,43.022 C460.768,43.022 462.427,44.049 463.138,46.024 C463.375,46.893 463.533,47.683 463.533,48.236 C463.533,49.026 463.375,49.974 463.059,51.08 C462.506,53.292 461.005,58.111 460.057,61.982 C459.03,66.011 458.556,69.092 458.556,71.304 C458.556,74.464 459.662,76.044 461.795,76.044 C463.454,76.044 464.955,75.886 466.14,75.175 C467.325,74.306 468.115,74.148 468.826,72.805 C469.695,71.304 469.932,71.304 470.564,69.171 L471.275,67.117 L471.907,64.668 L472.539,62.14 C472.776,61.587 473.25,59.691 473.961,56.531 C475.541,50.211 477.279,44.523 478.622,43.575 C479.491,43.259 480.518,43.101 481.545,43.101 C485.021,43.101 488.26,44.839 488.655,48.078 C488.734,48.315 488.734,48.552 488.734,48.947 C488.734,50.448 487.786,54.082 485.969,59.928 C484.152,65.695 482.967,70.672 482.256,74.859 L482.256,75.728 C482.256,77.071 482.809,77.782 483.836,77.782 C484.626,77.782 486.285,77.229 488.734,76.123 C491.183,74.938 493,74.385 494.027,74.385 C494.896,74.385 495.528,74.701 496.002,75.333 C496.713,76.36 497.108,77.466 497.108,78.493 C497.108,80.784 495.37,83.075 491.815,85.366 C487.391,88.131 481.15,89.632 476.41,89.632 C474.593,89.632 473.25,89.395 472.223,89 C469.932,87.894 471.196,84.655 469.853,86.472 C467.878,88.447 464.718,89.474 460.531,89.474 C456.739,89.474 453.421,88.447 450.498,86.393 C447.654,84.26 445.995,81.021 445.6,76.676 C445.6,76.439 445.521,76.123 445.521,75.886 C443.467,77.782 440.939,79.836 438.016,82.048 C434.935,84.26 432.17,85.366 429.8,85.366 C428.141,85.366 427.193,84.971 426.798,84.26 C426.403,83.233 426.166,82.364 426.166,81.732 C426.166,79.046 428.22,76.676 432.407,74.622 C435.172,73.358 438.49,70.277 442.361,65.458 C446.232,60.56 448.681,56.057 449.866,51.87 L449.945,51.791 Z M542.217,70.672 L542.217,71.699 C542.217,73.99 542.217,75.807 540.716,79.283 C540.005,81.021 538.978,82.522 537.714,83.786 C535.265,86.235 530.13,88.368 523.257,88.368 C521.756,88.368 520.176,88.289 518.438,88.131 C515.91,87.262 513.619,86.077 511.565,84.497 C509.59,82.917 508.563,81.179 508.563,79.362 C508.563,78.493 508.8,77.703 509.274,76.834 C510.222,75.491 511.17,74.78 512.118,74.78 C512.829,74.78 514.093,75.57 516.068,77.15 C518.043,78.73 519.781,79.52 521.361,79.52 L521.835,79.52 C524.679,79.52 527.049,77.071 528.234,73.595 C528.471,72.726 528.629,71.936 528.629,71.383 C528.629,69.803 528.076,68.381 526.97,67.117 C525.864,65.853 524.284,64.51 522.309,63.167 C520.334,61.745 518.991,60.56 518.122,59.691 C517.332,62.14 516.147,64.589 514.567,66.959 C514.014,67.749 512.118,69.724 508.8,72.884 C505.561,75.965 502.717,78.493 500.347,80.468 C499.083,81.653 497.424,82.759 495.37,83.865 C493.316,84.892 491.499,85.445 489.919,85.445 C488.418,85.445 487.391,84.892 486.838,83.707 C486.522,83.075 486.364,82.443 486.364,81.811 C486.364,79.046 488.971,76.36 494.106,73.832 C496.634,72.568 499.557,69.645 502.875,65.063 C506.272,60.402 508.563,55.978 509.748,51.791 C509.827,51.633 509.827,51.396 509.827,51.08 C509.827,50.369 509.432,48.947 508.642,46.972 C507.931,44.918 507.457,43.259 507.378,42.074 L507.378,41.205 C507.378,38.677 507.931,36.228 509.037,33.937 C510.222,31.646 511.644,30.461 513.461,30.461 C514.014,30.461 514.488,30.54 514.962,30.777 C517.49,31.883 519.307,34.016 520.334,37.097 C521.44,40.178 521.993,43.259 521.993,46.34 C521.993,47.051 521.914,47.762 521.835,48.394 C522.941,49.342 524.916,50.764 527.681,52.739 C530.446,54.714 532.816,56.373 534.633,57.874 C536.529,59.296 538.267,61.192 539.847,63.562 C541.427,65.853 542.217,68.223 542.217,70.672 Z" id="Fretaculous" fill="#000000" fill-rule="nonzero"></path>
    </g>
</svg>